<?xml version="1.0" encoding="utf-8"?>


<!-- The icon can be used freely in both personal and commercial projects with no attribution required, but always appreciated. 
You may NOT sub-license, resell, rent, redistribute or otherwise transfer the icon without express written permission from iconmonstr.com -->


<!DOCTYPE svg PUBLIC "-//W3C//DTD SVG 1.1//EN" "http://www.w3.org/Graphics/SVG/1.1/DTD/svg11.dtd">

<svg version="1.1" xmlns="http://www.w3.org/2000/svg" xmlns:xlink="http://www.w3.org/1999/xlink" x="0px" y="0px"

	 width="512px" height="512px" viewBox="0 0 512 512" enable-background="new 0 0 512 512" xml:space="preserve">

<path id="warning-4-icon" d="M228.55,134.812h54.9v166.5h-54.9V134.812z M256,385.188c-16.362,0-29.626-13.264-29.626-29.625

	c0-16.362,13.264-29.627,29.626-29.627c16.361,0,29.625,13.265,29.625,29.627C285.625,371.924,272.361,385.188,256,385.188z M256,90

	c91.742,0,166,74.245,166,166c0,91.741-74.245,166-166,166c-91.742,0-166-74.245-166-166C90,164.259,164.245,90,256,90z M256,50

	C142.229,50,50,142.229,50,256s92.229,206,206,206s206-92.229,206-206S369.771,50,256,50z"/>

</svg>

